<svg width="16" height="16" viewBox="0 0 16 16" fill="none" xmlns="http://www.w3.org/2000/svg">
<path d="M4.06809 6.83404C4.01944 6.7872 3.98074 6.73102 3.9543 6.66887C3.92787 6.60672 3.91424 6.53988 3.91424 6.47234C3.91424 6.4048 3.92787 6.33796 3.9543 6.27581C3.98074 6.21366 4.01944 6.15748 4.06809 6.11064C4.11419 6.06223 4.16964 6.02369 4.23109 5.99736C4.29253 5.97102 4.35868 5.95745 4.42553 5.95745C4.49238 5.95745 4.55853 5.97102 4.61998 5.99736C4.68142 6.02369 4.73688 6.06223 4.78298 6.11064L7.48936 8.80851V0.510638C7.48936 0.375209 7.54316 0.245326 7.63892 0.149562C7.73469 0.0537992 7.86457 0 8 0C8.13543 0 8.26531 0.0537992 8.36108 0.149562C8.45684 0.245326 8.51064 0.375209 8.51064 0.510638V8.80851L11.217 6.11064C11.2631 6.06223 11.3186 6.02369 11.38 5.99736C11.4415 5.97102 11.5076 5.95745 11.5745 5.95745C11.6413 5.95745 11.7075 5.97102 11.7689 5.99736C11.8304 6.02369 11.8858 6.06223 11.9319 6.11064C11.9806 6.15748 12.0193 6.21366 12.0457 6.27581C12.0721 6.33796 12.0858 6.4048 12.0858 6.47234C12.0858 6.53988 12.0721 6.60672 12.0457 6.66887C12.0193 6.73102 11.9806 6.7872 11.9319 6.83404L8.35745 10.4C8.31134 10.4484 8.25589 10.4869 8.19444 10.5133C8.133 10.5396 8.06685 10.5532 8 10.5532C7.93315 10.5532 7.867 10.5396 7.80555 10.5133C7.74411 10.4869 7.68866 10.4484 7.64255 10.4L4.06809 6.83404ZM15.4894 9.53191C15.3539 9.53191 15.224 9.58571 15.1283 9.68148C15.0325 9.77724 14.9787 9.90712 14.9787 10.0426V14.8085C14.9787 14.8537 14.9608 14.8969 14.9289 14.9289C14.8969 14.9608 14.8537 14.9787 14.8085 14.9787H1.19149C1.14635 14.9787 1.10305 14.9608 1.07113 14.9289C1.03921 14.8969 1.02128 14.8537 1.02128 14.8085V10.0426C1.02128 9.90712 0.967477 9.77724 0.871714 9.68148C0.775951 9.58571 0.646068 9.53191 0.510638 9.53191C0.375209 9.53191 0.245326 9.58571 0.149562 9.68148C0.0537992 9.77724 0 9.90712 0 10.0426V14.8085C0 15.1245 0.125532 15.4276 0.348979 15.651C0.572427 15.8745 0.875487 16 1.19149 16H14.8085C15.1245 16 15.4276 15.8745 15.651 15.651C15.8745 15.4276 16 15.1245 16 14.8085V10.0426C16 9.90712 15.9462 9.77724 15.8504 9.68148C15.7547 9.58571 15.6248 9.53191 15.4894 9.53191Z" fill="#333333"/>
</svg>
