<svg width="31" height="30" viewBox="0 0 31 30" fill="none" xmlns="http://www.w3.org/2000/svg">
<path d="M25.5029 1.5H4.50293C2.85293 1.5 1.50293 2.85 1.50293 4.5V25.5C1.50293 27.1515 2.85293 28.5 4.50293 28.5H15.0029V18H12.0029V14.2875H15.0029V11.2125C15.0029 7.9665 16.8209 5.6865 20.6519 5.6865L23.3564 5.6895V9.597H21.5609C20.0699 9.597 19.5029 10.716 19.5029 11.754V14.289H23.3549L22.5029 18H19.5029V28.5H25.5029C27.1529 28.5 28.5029 27.1515 28.5029 25.5V4.5C28.5029 2.85 27.1529 1.5 25.5029 1.5Z" fill="#FFC000"/>
</svg>
