<svg width="37" height="36" viewBox="0 0 37 36" fill="none" xmlns="http://www.w3.org/2000/svg">
<g clip-path="url(#clip0_25_943)">
<path d="M33.713 17.29L18.713 2.29C18.5256 2.10375 18.2721 1.99921 18.008 1.99921C17.7438 1.99921 17.4903 2.10375 17.303 2.29L2.30296 17.29C2.13913 17.4813 2.05352 17.7274 2.06325 17.9791C2.07297 18.2307 2.1773 18.4695 2.35539 18.6476C2.53349 18.8257 2.77223 18.93 3.0239 18.9397C3.27558 18.9494 3.52166 18.8638 3.71296 18.7L18.003 4.41L32.293 18.71C32.4843 18.8738 32.7303 18.9594 32.982 18.9497C33.2337 18.94 33.4724 18.8357 33.6505 18.6576C33.8286 18.4795 33.9329 18.2407 33.9427 17.9891C33.9524 17.7374 33.8668 17.4913 33.703 17.3L33.713 17.29Z" fill="#FFC000"/>
<path d="M28.0029 32H23.0029V22H13.0029V32H8.00293V18L6.00293 20V32C6.00293 32.5304 6.21364 33.0391 6.58872 33.4142C6.96379 33.7893 7.4725 34 8.00293 34H15.0029V24H21.0029V34H28.0029C28.5334 34 29.0421 33.7893 29.4171 33.4142C29.7922 33.0391 30.0029 32.5304 30.0029 32V19.76L28.0029 17.76V32Z" fill="#FFC000"/>
</g>
<defs>
<clipPath id="clip0_25_943">
<rect width="36" height="36" fill="white" transform="translate(0.00292969)"/>
</clipPath>
</defs>
</svg>
