<svg width="36" height="35" viewBox="0 0 36 35" fill="none" xmlns="http://www.w3.org/2000/svg">
<path d="M17.5014 10.7581C15.7129 10.7581 13.9978 11.4686 12.7331 12.7332C11.4685 13.9978 10.7581 15.713 10.7581 17.5015C10.7581 19.2899 11.4685 21.0051 12.7331 22.2697C13.9978 23.5343 15.7129 24.2448 17.5014 24.2448C19.2898 24.2448 21.005 23.5343 22.2696 22.2697C23.5343 21.0051 24.2447 19.2899 24.2447 17.5015C24.2447 15.713 23.5343 13.9978 22.2696 12.7332C21.005 11.4686 19.2898 10.7581 17.5014 10.7581ZM17.5014 21.8808C16.3395 21.8808 15.2252 21.4193 14.4037 20.5977C13.5821 19.7761 13.1206 18.6619 13.1206 17.5C13.1206 16.3381 13.5821 15.2238 14.4037 14.4023C15.2252 13.5807 16.3395 13.1192 17.5014 13.1192C18.6633 13.1192 19.7775 13.5807 20.5991 14.4023C21.4207 15.2238 21.8822 16.3381 21.8822 17.5C21.8822 18.6619 21.4207 19.7761 20.5991 20.5977C19.7775 21.4193 18.6633 21.8808 17.5014 21.8808Z" fill="#FFC000"/>
<path d="M24.5118 12.0823C25.38 12.0823 26.0839 11.3784 26.0839 10.5102C26.0839 9.64197 25.38 8.93813 24.5118 8.93813C23.6435 8.93813 22.9397 9.64197 22.9397 10.5102C22.9397 11.3784 23.6435 12.0823 24.5118 12.0823Z" fill="#FFC000"/>
<path d="M29.9469 8.91188C29.6093 8.04006 29.0934 7.24833 28.4322 6.58738C27.771 5.92643 26.9791 5.41081 26.1071 5.07354C25.0868 4.69052 24.0088 4.48342 22.9192 4.46104C21.5148 4.39979 21.07 4.38229 17.5088 4.38229C13.9475 4.38229 13.4911 4.38229 12.0984 4.46104C11.0096 4.48227 9.93238 4.68942 8.91336 5.07354C8.04118 5.41042 7.24906 5.9259 6.5878 6.5869C5.92655 7.2479 5.41078 8.03983 5.07357 8.91188C4.69047 9.93215 4.48384 11.0102 4.46253 12.0998C4.39982 13.5027 4.38086 13.9475 4.38086 17.5102C4.38086 21.0715 4.38086 21.525 4.46253 22.9206C4.4844 24.0115 4.69003 25.0877 5.07357 26.11C5.41172 26.9817 5.928 27.7733 6.58941 28.4343C7.25082 29.0952 8.04283 29.6108 8.91482 29.9483C9.93191 30.3467 11.0095 30.5687 12.1013 30.6046C13.5057 30.6658 13.9504 30.6848 17.5117 30.6848C21.0729 30.6848 21.5294 30.6848 22.9221 30.6046C24.0116 30.5824 25.0895 30.3758 26.11 29.9935C26.9818 29.6555 27.7734 29.1394 28.4346 28.4783C29.0957 27.8172 29.6118 27.0255 29.9498 26.1538C30.3334 25.1329 30.539 24.0567 30.5609 22.9658C30.6236 21.5629 30.6425 21.1181 30.6425 17.5554C30.6425 13.9927 30.6425 13.5406 30.5609 12.145C30.5439 11.04 30.3362 9.9462 29.9469 8.91188ZM28.1706 22.8127C28.1612 23.6532 28.0078 24.4858 27.7171 25.2744C27.4981 25.8415 27.1628 26.3565 26.7328 26.7862C26.3028 27.2159 25.7877 27.5509 25.2204 27.7696C24.4406 28.059 23.6168 28.2124 22.785 28.2231C21.3996 28.2873 21.0088 28.3033 17.4563 28.3033C13.9009 28.3033 13.5377 28.3033 12.1261 28.2231C11.2947 28.213 10.4713 28.0595 9.69211 27.7696C9.1229 27.5523 8.60565 27.2179 8.17382 26.7881C7.74199 26.3582 7.4052 25.8426 7.18523 25.2744C6.89859 24.4942 6.74527 23.6714 6.73169 22.8404C6.66898 21.455 6.6544 21.0642 6.6544 17.5117C6.6544 13.9577 6.6544 13.5946 6.73169 12.1815C6.74112 11.3415 6.89452 10.5094 7.18523 9.72125C7.63003 8.57063 8.54148 7.665 9.69211 7.22459C10.4717 6.93604 11.2949 6.78266 12.1261 6.77104C13.5129 6.70834 13.9023 6.69083 17.4563 6.69083C21.0102 6.69083 21.3748 6.69084 22.785 6.77104C23.6169 6.78105 24.4408 6.93448 25.2204 7.22459C25.7876 7.44373 26.3027 7.77905 26.7327 8.209C27.1626 8.63896 27.498 9.15406 27.7171 9.72125C28.0037 10.5014 28.1571 11.3242 28.1706 12.1552C28.2334 13.5421 28.2494 13.9315 28.2494 17.4854C28.2494 21.0379 28.2494 21.42 28.1867 22.8142H28.1706V22.8127Z" fill="#FFC000"/>
</svg>
