<svg width="36" height="35" viewBox="0 0 36 35" fill="none" xmlns="http://www.w3.org/2000/svg">
<path d="M28.4403 31.7188H28.2544C6.76223 30.4828 3.71066 12.3484 3.2841 6.81406C3.24973 6.38376 3.3006 5.9509 3.43381 5.54029C3.56701 5.12968 3.77993 4.74939 4.06035 4.42121C4.34078 4.09303 4.68321 3.82341 5.06802 3.62779C5.45283 3.43218 5.87245 3.31441 6.30285 3.28125H12.3294C12.7675 3.28083 13.1957 3.41196 13.5584 3.65768C13.9211 3.90339 14.2017 4.25236 14.3638 4.65938L16.0263 8.75C16.1864 9.14763 16.2261 9.58352 16.1405 10.0035C16.055 10.4236 15.8479 10.8092 15.545 11.1125L13.2154 13.4641C13.5793 15.5321 14.5696 17.4384 16.0524 18.9251C17.5352 20.4118 19.4389 21.4072 21.506 21.7766L23.8794 19.425C24.1873 19.1255 24.5766 18.9232 24.9986 18.8435C25.4207 18.7638 25.8569 18.81 26.2528 18.9766L30.3763 20.6281C30.7772 20.7953 31.1192 21.0781 31.3588 21.4404C31.5984 21.8027 31.7247 22.2282 31.7216 22.6625V28.4375C31.7216 29.3077 31.3759 30.1423 30.7605 30.7577C30.1452 31.373 29.3106 31.7188 28.4403 31.7188ZM6.56535 5.46875C6.27527 5.46875 5.99707 5.58399 5.79195 5.7891C5.58683 5.99422 5.4716 6.27242 5.4716 6.5625V6.65C5.97472 13.125 9.20129 28.4375 28.3747 29.5312C28.5184 29.5401 28.6624 29.5206 28.7986 29.4737C28.9347 29.4267 29.0602 29.3534 29.1679 29.2579C29.2756 29.1624 29.3634 29.0466 29.4262 28.917C29.4891 28.7875 29.5257 28.6468 29.5341 28.5031V22.6625L25.4107 21.0109L22.2716 24.1281L21.7466 24.0625C12.231 22.8703 10.9403 13.3547 10.9403 13.2563L10.8747 12.7313L13.981 9.59219L12.3403 5.46875H6.56535Z" fill="#FFC000"/>
</svg>
