<svg width="31" height="30" viewBox="0 0 31 30" fill="none" xmlns="http://www.w3.org/2000/svg">
<g clip-path="url(#clip0_25_919)">
<path fill-rule="evenodd" clip-rule="evenodd" d="M30.0029 15C30.0029 23.2838 23.2867 30 15.0029 30C6.71918 30 0.00292969 23.2838 0.00292969 15C0.00292969 6.71625 6.71918 0 15.0029 0C23.2867 0 30.0029 6.71625 30.0029 15ZM15.5404 11.0738C14.0817 11.68 11.1654 12.9362 6.79293 14.8413C6.08293 15.1237 5.71043 15.4 5.67668 15.67C5.61918 16.1275 6.19168 16.3075 6.96918 16.5513C7.07543 16.585 7.18543 16.6187 7.29793 16.6562C8.06418 16.905 9.09418 17.1962 9.62918 17.2075C10.1154 17.2175 10.6579 17.0175 11.2567 16.6075C15.3417 13.8488 17.4504 12.455 17.5829 12.425C17.6767 12.4037 17.8067 12.3762 17.8942 12.455C17.9817 12.5325 17.9729 12.68 17.9642 12.72C17.9067 12.9612 15.6642 15.0475 14.5017 16.1275C14.1392 16.4638 13.8829 16.7025 13.8304 16.7575C13.7129 16.8787 13.5929 16.995 13.4779 17.1063C12.7654 17.7913 12.2329 18.3062 13.5079 19.1462C14.1204 19.55 14.6104 19.8838 15.0992 20.2163C15.6329 20.58 16.1654 20.9425 16.8554 21.395C17.0304 21.51 17.1979 21.6287 17.3617 21.745C17.9829 22.1887 18.5417 22.5862 19.2317 22.5237C19.6317 22.4862 20.0467 22.11 20.2567 20.9862C20.7529 18.3287 21.7304 12.5738 21.9567 10.2013C21.9704 10.0043 21.9621 9.80636 21.9317 9.61125C21.9135 9.45366 21.8368 9.30866 21.7167 9.205C21.5379 9.05875 21.2604 9.0275 21.1354 9.03C20.5717 9.04 19.7067 9.34125 15.5404 11.0738Z" fill="#FFC000"/>
</g>
<defs>
<clipPath id="clip0_25_919">
<rect width="30" height="30" fill="white" transform="translate(0.00292969)"/>
</clipPath>
</defs>
</svg>
