<svg width="27" height="31" viewBox="0 0 27 31" fill="none" xmlns="http://www.w3.org/2000/svg">
<path d="M13.5029 4.64844C10.9611 4.64844 8.47642 5.40217 6.36299 6.81432C4.24956 8.22646 2.60234 10.2336 1.62964 12.5819C0.656936 14.9302 0.402432 17.5143 0.898312 20.0072C1.39419 22.5002 2.61819 24.7901 4.41551 26.5874C6.21283 28.3847 8.50276 29.6087 10.9957 30.1046C13.4887 30.6005 16.0727 30.346 18.421 29.3733C20.7693 28.4006 22.7765 26.7534 24.1886 24.6399C25.6008 22.5265 26.3545 20.0418 26.3545 17.5C26.3509 14.0927 24.9957 10.8259 22.5864 8.41657C20.177 6.00722 16.9103 4.65206 13.5029 4.64844V4.64844ZM13.5029 28.7109C11.2856 28.7109 9.1181 28.0534 7.27447 26.8216C5.43084 25.5897 3.99391 23.8388 3.14538 21.7902C2.29685 19.7417 2.07484 17.4876 2.50741 15.3129C2.93999 13.1381 4.00773 11.1405 5.57561 9.57267C7.14348 8.00479 9.14108 6.93705 11.3158 6.50448C13.4905 6.0719 15.7446 6.29391 17.7932 7.14244C19.8417 7.99097 21.5926 9.42791 22.8245 11.2715C24.0564 13.1152 24.7139 15.2827 24.7139 17.5C24.7103 20.4722 23.5279 23.3217 21.4263 25.4233C19.3246 27.525 16.4752 28.7073 13.5029 28.7109V28.7109ZM19.4912 11.5117C19.569 11.5858 19.6309 11.6749 19.6732 11.7736C19.7155 11.8723 19.7373 11.9785 19.7373 12.0859C19.7373 12.1933 19.7155 12.2996 19.6732 12.3983C19.6309 12.497 19.569 12.5861 19.4912 12.6602L14.0772 18.0742C13.9249 18.2265 13.7183 18.3121 13.5029 18.3121C13.2876 18.3121 13.081 18.2265 12.9287 18.0742C12.7764 17.9219 12.6909 17.7154 12.6909 17.5C12.6909 17.2846 12.7764 17.0781 12.9287 16.9258L18.3428 11.5117C18.4168 11.434 18.5059 11.372 18.6046 11.3297C18.7033 11.2874 18.8096 11.2656 18.917 11.2656C19.0244 11.2656 19.1307 11.2874 19.2294 11.3297C19.3281 11.372 19.4172 11.434 19.4912 11.5117V11.5117ZM9.40137 1.09375C9.40137 0.87619 9.4878 0.66754 9.64164 0.513701C9.79548 0.359863 10.0041 0.273438 10.2217 0.273438H16.7842C17.0017 0.273438 17.2104 0.359863 17.3642 0.513701C17.5181 0.66754 17.6045 0.87619 17.6045 1.09375C17.6045 1.31131 17.5181 1.51996 17.3642 1.6738C17.2104 1.82764 17.0017 1.91406 16.7842 1.91406H10.2217C10.0041 1.91406 9.79548 1.82764 9.64164 1.6738C9.4878 1.51996 9.40137 1.31131 9.40137 1.09375Z" fill="#FFC000"/>
</svg>
